HIERARCHY
ROOT Hips
{
	OFFSET 0.000000 0.000000 0.000000
	CHANNELS 6 Xposition Yposition Zposition Xrotation Yrotation Zrotation
	JOINT LeftUpLeg_virtual
	{
		OFFSET 0.000000 0.000000 0.000000
		CHANNELS 3 Xrotation Yrotation Zrotation
		JOINT LeftUpLeg
		{
			OFFSET 11.394100 -6.187798 -0.413800
			CHANNELS 3 Xrotation Yrotation Zrotation
			JOINT LeftLeg
			{
				OFFSET 0.430247 -32.302673 3.732800
				CHANNELS 3 Xrotation Yrotation Zrotation
				JOINT LeftFoot
				{
					OFFSET -0.430247 -48.264931 -6.423300
					CHANNELS 3 Xrotation Yrotation Zrotation
					JOINT LeftToeBase
					{
						OFFSET 4.230900 -16.068199 23.438400
						CHANNELS 3 Xrotation Yrotation Zrotation
						JOINT LeftToe_End
						{
							OFFSET 4.510700 0.695400 19.974600
							CHANNELS 3 Xrotation Yrotation Zrotation
							End Site
							{
								OFFSET 0 0 0
							}
						}
					}
				}
			}
		}
	}
	JOINT RightUpLeg_virtual
	{
		OFFSET 0.000000 0.000000 0.000000
		CHANNELS 3 Xrotation Yrotation Zrotation
		JOINT RightUpLeg
		{
			OFFSET -11.333700 -6.187798 -0.413800
			CHANNELS 3 Xrotation Yrotation Zrotation
			JOINT RightLeg
			{
				OFFSET -0.430392 -32.302628 3.733000
				CHANNELS 3 Xrotation Yrotation Zrotation
				JOINT RightFoot
				{
					OFFSET 0.430392 -48.264973 -6.423500
					CHANNELS 3 Xrotation Yrotation Zrotation
					JOINT RightToeBase
					{
						OFFSET -4.230900 -16.068199 23.438400
						CHANNELS 3 Xrotation Yrotation Zrotation
						JOINT RightToe_End
						{
							OFFSET -4.510700 0.695400 19.974600
							CHANNELS 3 Xrotation Yrotation Zrotation
							End Site
							{
								OFFSET 0 0 0
							}
						}
					}
				}
			}
		}
	}
	JOINT Spine_virtual
	{
		OFFSET 0.000000 0.000000 0.000000
		CHANNELS 3 Xrotation Yrotation Zrotation
		JOINT Spine
		{
			OFFSET -0.002400 12.777504 0.315300
			CHANNELS 3 Xrotation Yrotation Zrotation
			JOINT Spine1
			{
				OFFSET -0.002067 5.816869 0.032633
				CHANNELS 3 Xrotation Yrotation Zrotation
				JOINT Spine1_split
				{
					OFFSET -0.002067 5.816869 0.032633
					CHANNELS 3 Xrotation Yrotation Zrotation
					JOINT Spine2
					{
						OFFSET -0.002067 5.816869 0.032633
						CHANNELS 3 Xrotation Yrotation Zrotation
						JOINT Neck_virtual
						{
							OFFSET 0.000000 0.000000 0.000000
							CHANNELS 3 Xrotation Yrotation Zrotation
							JOINT Neck
							{
								OFFSET -0.003700 21.199493 -0.826900
								CHANNELS 3 Xrotation Yrotation Zrotation
								JOINT Head
								{
									OFFSET 0.000000 20.442200 4.834800
									CHANNELS 3 Xrotation Yrotation Zrotation
									JOINT HeadTop_End
									{
										OFFSET 0.000000 34.668396 4.968400
										CHANNELS 3 Xrotation Yrotation Zrotation
										End Site
										{
											OFFSET 0 0 0
										}
									}
								}
							}
						}
						JOINT LeftShoulder_virtual
						{
							OFFSET 0.000000 0.000000 0.000000
							CHANNELS 3 Xrotation Yrotation Zrotation
							JOINT LeftShoulder
							{
								OFFSET 3.288150 8.794197 -1.372250
								CHANNELS 3 Xrotation Yrotation Zrotation
								JOINT LeftShoulder_split
								{
									OFFSET 3.288150 8.794197 -1.372250
									CHANNELS 3 Xrotation Yrotation Zrotation
									JOINT LeftArm
									{
										OFFSET 11.953299 -2.279007 -0.146200
										CHANNELS 3 Xrotation Yrotation Zrotation
										JOINT LeftForeArm
										{
											OFFSET 18.448900 0.000000 0.000000
											CHANNELS 3 Xrotation Yrotation Zrotation
											JOINT LeftHand
											{
												OFFSET 29.527798 0.000000 0.000000
												CHANNELS 3 Xrotation Yrotation Zrotation
												End Site
												{
													OFFSET 0 0 0
												}
											}
										}
									}
								}
							}
						}
						JOINT RightShoulder_virtual
						{
							OFFSET 0.000000 0.000000 0.000000
							CHANNELS 3 Xrotation Yrotation Zrotation
							JOINT RightShoulder
							{
								OFFSET -3.249400 8.794197 -1.372250
								CHANNELS 3 Xrotation Yrotation Zrotation
								JOINT RightShoulder_split
								{
									OFFSET -3.249400 8.794197 -1.372250
									CHANNELS 3 Xrotation Yrotation Zrotation
									JOINT RightArm
									{
										OFFSET -11.953299 -2.279007 -0.146200
										CHANNELS 3 Xrotation Yrotation Zrotation
										JOINT RightForeArm
										{
											OFFSET -18.448900 0.000000 0.000000
											CHANNELS 3 Xrotation Yrotation Zrotation
											JOINT RightHand
											{
												OFFSET -29.527802 0.000000 0.000000
												CHANNELS 3 Xrotation Yrotation Zrotation
												End Site
												{
													OFFSET 0 0 0
												}
											}
										}
									}
								}
							}
						}
					}
				}
			}
		}
	}
}
MOTION
Frames: 5
Frame Time: 0.03333333
0.487310 86.889603 2.004414 0.000000 0.000000 0.000000 8.525843 -57.371308 9.445817 -41.371364 6.189856 22.937199 38.269379 -5.420391 -2.691779 -2.415759 -4.570754 -10.279061 1.807282 0.650124 -1.207674 0.000000 0.000000 0.000000 9.028540 -58.202480 10.030536 -41.784184 -7.747850 -23.809256 45.945607 2.630930 -6.017228 -11.373100 -0.237333 19.858072 5.424548 -1.193837 -4.114870 0.000000 0.000000 0.000000 10.581084 -54.044589 10.625617 9.186645 -2.061171 -1.095669 8.490083 0.553372 -5.872457 -0.530789 -4.338891 0.918227 0.000000 0.000000 0.000000 8.399230 0.988259 -4.750864 -15.378500 27.108003 6.243256 -3.446052 35.799477 -6.550332 0.000000 0.000000 0.000000 8.352220 1.155137 -5.546825 -5.809261 -10.258436 -1.545134 -5.731015 0.928270 -4.160817 -19.092831 -1.527308 -33.127370 3.250106 -35.165188 8.102979 0.000000 0.000000 0.000000 8.880971 1.148559 -5.387062 -2.694137 11.958918 -3.654624 1.893430 -3.932754 8.601197 -43.826588 -19.791959 33.779677 -152.813011 66.985304 150.731224 0.000000 0.000000 0.000000 
0.762204 86.816177 1.362045 0.000000 0.000000 0.000000 8.850369 -57.343420 9.942063 -41.045964 6.309437 22.475356 37.735702 -4.645687 -3.006312 -2.808305 -4.309497 -9.794317 1.925423 0.617417 -1.565819 0.000000 0.000000 0.000000 9.381413 -58.580115 10.603198 -42.096331 -8.000601 -24.127264 46.051833 2.766170 -5.968709 -10.903273 -0.187300 19.498407 4.810860 -1.428658 -3.540933 0.000000 0.000000 0.000000 10.666880 -53.812581 10.873304 9.160581 -1.856527 -1.048685 8.375277 0.537181 -5.850036 -0.452996 -4.049893 1.361595 0.000000 0.000000 0.000000 8.464139 0.918340 -4.641036 -15.284717 27.591611 6.310301 -2.866938 35.301539 -6.529402 0.000000 0.000000 0.000000 8.406879 1.114092 -5.477176 -5.798430 -10.326485 -1.872244 -6.691640 0.475058 -4.785738 -18.587153 -1.436769 -33.810618 3.203005 -36.669640 7.779920 0.000000 0.000000 0.000000 8.756040 1.043383 -5.166871 -2.081235 12.623435 -3.293779 1.398824 -4.202548 6.918235 -43.819266 -22.188686 32.981734 -150.417090 68.284482 148.402867 0.000000 0.000000 0.000000 
0.997883 86.793442 0.636009 0.000000 0.000000 0.000000 8.970746 -57.810147 10.572383 -40.338547 6.971719 22.150561 37.090728 -3.618113 -3.471758 -3.176469 -4.050704 -9.858296 2.035702 0.544767 -1.736046 0.000000 0.000000 0.000000 9.370980 -59.284034 11.226277 -42.621661 -8.371362 -24.734497 46.052947 3.448204 -5.916328 -10.364809 0.103731 19.305934 4.398650 -1.553342 -3.278072 0.000000 0.000000 0.000000 10.171747 -53.909092 10.889477 9.404849 -1.542434 -1.018063 8.493513 0.586708 -5.750958 -0.122295 -3.368169 1.434839 0.000000 0.000000 0.000000 8.583151 0.980097 -4.548229 -16.081814 27.803477 7.350947 -1.761214 34.670303 -6.732968 0.000000 0.000000 0.000000 8.576506 1.118569 -5.340498 -5.825788 -10.697221 -2.265087 -7.312140 -0.550330 -5.262029 -18.685531 0.912006 -34.884952 3.533502 -38.743060 6.778412 0.000000 0.000000 0.000000 8.695122 1.014542 -4.893434 -1.211079 13.051387 -2.663241 0.430844 -3.475034 5.433322 -44.372812 -23.806343 30.443027 -142.932404 69.426585 141.512900 0.000000 0.000000 0.000000 
1.105259 86.879753 0.187973 0.000000 0.000000 0.000000 8.973861 -58.870794 11.358912 -39.277365 8.185951 21.958853 36.631097 -2.387404 -4.021003 -3.614534 -3.744816 -10.503117 2.443463 0.451061 -1.721339 0.000000 0.000000 0.000000 9.152016 -60.430850 11.898667 -43.310629 -8.615414 -25.521434 45.950145 4.554984 -5.834175 -9.712813 0.696789 19.340222 4.054766 -1.560292 -3.332789 0.000000 0.000000 0.000000 9.356999 -54.601728 10.842568 9.864632 -1.134806 -0.989458 8.819787 0.722653 -5.540500 0.170205 -2.634090 1.238334 0.000000 0.000000 0.000000 8.757774 1.171119 -4.421983 -17.410224 27.709734 8.907520 -0.069772 34.097732 -7.309696 0.000000 0.000000 0.000000 8.836889 1.202303 -5.097138 -5.924462 -11.386789 -2.904299 -7.800145 -1.804290 -5.397053 -18.792955 4.989448 -35.957326 4.246832 -41.040619 5.283757 0.000000 0.000000 0.000000 8.778441 1.084502 -4.585248 -0.150475 13.398572 -1.924113 -0.772296 -2.491583 4.271469 -45.150843 -24.004218 26.260310 -130.982592 69.689759 130.620032 0.000000 0.000000 0.000000 
1.079903 87.003487 0.177418 0.000000 0.000000 0.000000 8.975595 -60.790821 12.349327 -37.921767 9.785398 21.852927 36.617952 -0.942462 -4.615934 -4.350589 -3.229040 -11.541030 3.247578 0.373394 -1.585710 0.000000 0.000000 0.000000 8.793404 -62.244730 12.611097 -44.183483 -8.468226 -26.234021 45.585270 5.940244 -5.753752 -8.886254 1.553141 19.564966 3.240941 -1.445904 -3.601948 0.000000 0.000000 0.000000 8.245306 -56.136918 10.813322 10.423034 -0.660610 -0.919382 9.295484 0.948899 -5.132566 0.444432 -1.997498 1.011147 0.000000 0.000000 0.000000 9.013524 1.461218 -4.174618 -18.640088 27.433889 10.524229 2.223663 33.819163 -8.478643 0.000000 0.000000 0.000000 9.245500 1.368606 -4.655683 -6.142367 -12.413025 -3.911287 -7.996155 -2.567119 -5.506182 -18.487010 9.658539 -36.638009 5.606447 -43.587651 3.676251 0.000000 0.000000 0.000000 9.054772 1.239787 -4.189091 0.995597 13.761483 -1.363174 -1.749906 -2.058015 3.215074 -45.558827 -22.229990 20.755106 -116.411381 68.603253 117.410597 0.000000 0.000000 0.000000 
